<?xml version="1.0" encoding="UTF-8" standalone="no"?>
<!-- Generator: Adobe Illustrator 19.0.0, SVG Export Plug-In . SVG Version: 6.00 Build 0)  -->

<svg
   xmlns:dc="http://purl.org/dc/elements/1.1/"
   xmlns:cc="http://creativecommons.org/ns#"
   xmlns:rdf="http://www.w3.org/1999/02/22-rdf-syntax-ns#"
   xmlns:svg="http://www.w3.org/2000/svg"
   xmlns="http://www.w3.org/2000/svg"
   xmlns:sodipodi="http://sodipodi.sourceforge.net/DTD/sodipodi-0.dtd"
   xmlns:inkscape="http://www.inkscape.org/namespaces/inkscape"
   version="1.1"
   id="Layer_1"
   x="0px"
   y="0px"
   viewBox="0 0 501.368 501.368"
   style="enable-background:new 0 0 501.368 501.368;"
   xml:space="preserve"
   sodipodi:docname="route-nav.svg"
   inkscape:version="0.92.5 (2060ec1f9f, 2020-04-08)"
   inkscape:export-filename="/home/john/Téléchargements/0002.png"
   inkscape:export-xdpi="98.035774"
   inkscape:export-ydpi="98.035774"><metadata
   id="metadata47"><rdf:RDF><cc:Work
       rdf:about=""><dc:format>image/svg+xml</dc:format><dc:type
         rdf:resource="http://purl.org/dc/dcmitype/StillImage" /><dc:title></dc:title></cc:Work></rdf:RDF></metadata><defs
   id="defs45">
	

		
	
			
			
		</defs><sodipodi:namedview
   pagecolor="#505050"
   bordercolor="#ffffff"
   borderopacity="1"
   objecttolerance="10"
   gridtolerance="10"
   guidetolerance="10"
   inkscape:pageopacity="0"
   inkscape:pageshadow="2"
   inkscape:window-width="1920"
   inkscape:window-height="1043"
   id="namedview43"
   showgrid="false"
   inkscape:zoom="0.47071212"
   inkscape:cx="250.68401"
   inkscape:cy="250.68401"
   inkscape:window-x="0"
   inkscape:window-y="0"
   inkscape:window-maximized="1"
   inkscape:current-layer="Layer_1" />
<path
   inkscape:connector-curvature="0"
   id="path2"
   d="m 120.995,255.996 h 248.853 c 54.933,0 99.52,-43.093 99.52,-96 0,-52.907 -44.693,-96 -99.52,-96 H 127.075 C 120.995,28.156 86.222,4.369 50.382,12.156 18.275,19.089 -3.485,49.809 0.462,82.343 c 4.48,36.48 38.4,61.44 74.24,55.467 26.88,-4.587 47.893,-25.6 52.48,-52.48 h 242.773 c 43.093,0 78.187,33.493 78.187,74.667 0,41.173 -35.093,74.667 -78.187,74.667 h -248.96 c -54.933,0 -99.627,43.093 -99.627,96 0,52.907 44.693,96 99.52,96 h 173.333 l -45.653,45.76 c -4.267,4.053 -4.373,10.88 -0.213,15.04 4.16,4.16 10.88,4.373 15.04,0.213 0.107,-0.107 0.213,-0.213 0.213,-0.213 l 63.893,-63.893 c 4.16,-4.16 4.16,-10.88 0,-15.04 l -63.893,-64 c -4.267,-4.053 -10.987,-3.947 -15.04,0.213 -3.947,4.16 -3.947,10.667 0,14.827 l 45.76,45.76 H 120.995 c -43.2,0 -78.293,-33.493 -78.293,-74.667 0,-41.174 35.093,-74.668 78.293,-74.668 z M 64.035,117.223 c -23.573,0 -42.667,-19.093 -42.667,-42.667 0,-23.573 19.093,-42.667 42.667,-42.667 23.573,0 42.667,19.093 42.667,42.667 0,23.573 -19.094,42.667 -42.667,42.667 z"
   style="fill:#cb4f24;fill-opacity:1" /><path
   inkscape:connector-curvature="0"
   id="path4"
   d="m 437.368,351.889 c -35.307,0 -64,28.693 -64,64 0,35.307 28.693,64 64,64 35.307,0 64,-28.693 64,-64 0,-35.307 -28.586,-63.893 -64,-64 z m 0,106.667 c -23.573,0 -42.667,-19.093 -42.667,-42.667 0,-23.574 19.093,-42.667 42.667,-42.667 23.574,0 42.667,19.093 42.667,42.667 0,23.574 -19.093,42.667 -42.667,42.667 z"
   style="fill:#00384e;fill-opacity:1" />
<g
   id="g12">
</g>
<g
   id="g14">
</g>
<g
   id="g16">
</g>
<g
   id="g18">
</g>
<g
   id="g20">
</g>
<g
   id="g22">
</g>
<g
   id="g24">
</g>
<g
   id="g26">
</g>
<g
   id="g28">
</g>
<g
   id="g30">
</g>
<g
   id="g32">
</g>
<g
   id="g34">
</g>
<g
   id="g36">
</g>
<g
   id="g38">
</g>
<g
   id="g40">
</g>
</svg>